<svg width="10030" height="345" viewBox="0 0 10030 345" fill="none" xmlns="http://www.w3.org/2000/svg">
<path fill-rule="evenodd" clip-rule="evenodd" d="M3905.37 229.545H3950.34V344.905H3893.64V278.427H3696.16V344.905H3639.46V229.545H3647.28C3659.01 229.545 3667.87 225.374 3673.87 217.032C3680.12 208.69 3683.9 195.524 3685.21 177.536L3697.33 4.69238H3905.37V229.545ZM3739.96 176.754C3738.91 189.528 3736.83 199.826 3733.7 207.646C3730.57 215.467 3725.75 222.115 3719.23 227.59V229.545H3848.67V53.5732H3748.95L3739.96 176.754Z" fill="black" fill-opacity="0.05"/>
<path d="M4717.62 229.545H4842.76V4.69238H4899.46V229.545H4944.43V344.905H4887.73V278.427H4660.92V4.69238H4717.62V229.545Z" fill="black" fill-opacity="0.05"/>
<path d="M1769.66 0C1793.38 2.95116e-05 1814.76 4.30126 1833.79 12.9043C1852.82 21.2467 1868.2 33.109 1879.93 48.4902C1891.66 63.6108 1898.83 81.3383 1901.44 101.673H1842C1838.87 86.0309 1830.79 73.6479 1817.76 64.5234C1804.72 55.399 1788.69 50.836 1769.66 50.8359C1753.49 50.8359 1739.16 54.6165 1726.64 62.1768C1714.13 69.737 1704.35 80.4261 1697.31 94.2432C1690.54 107.799 1687.15 123.571 1687.15 141.56C1687.15 159.548 1690.54 175.451 1697.31 189.268C1704.35 202.824 1714.13 213.382 1726.64 220.942C1739.16 228.503 1753.49 232.283 1769.66 232.283C1788.95 232.283 1804.85 227.981 1817.37 219.378C1830.14 210.775 1838.61 198.262 1842.78 181.838H1902.22C1898.83 202.172 1891.14 220.03 1879.15 235.411C1867.42 250.532 1852.17 262.263 1833.4 270.605C1814.63 278.948 1793.38 283.119 1769.66 283.119C1741.5 283.119 1716.6 277.254 1694.97 265.522C1673.33 253.53 1656.51 236.845 1644.52 215.468C1632.53 193.83 1626.53 169.194 1626.53 141.56C1626.53 113.925 1632.53 89.4193 1644.52 68.042C1656.51 46.4042 1673.33 29.7197 1694.97 17.9883C1716.6 5.99615 1741.5 0 1769.66 0Z" fill="black" fill-opacity="0.05"/>
<path fill-rule="evenodd" clip-rule="evenodd" d="M6089.54 0C6117.7 0 6142.59 5.99612 6164.23 17.9883C6186.13 29.7197 6203.08 46.4043 6215.07 68.042C6227.32 89.4193 6233.45 113.925 6233.45 141.56C6233.45 169.194 6227.32 193.83 6215.07 215.468C6203.08 236.845 6186.13 253.53 6164.23 265.522C6142.59 277.254 6117.7 283.119 6089.54 283.119C6061.39 283.119 6036.36 277.254 6014.46 265.522C5992.82 253.53 5975.88 236.845 5963.62 215.468C5951.63 193.83 5945.63 169.194 5945.63 141.56C5945.63 113.925 5951.63 89.4193 5963.62 68.042C5975.88 46.4041 5992.82 29.7197 6014.46 17.9883C6036.36 5.99625 6061.39 0 6089.54 0ZM6089.54 50.8359C6073.12 50.8359 6058.52 54.6166 6045.74 62.1768C6033.23 69.737 6023.45 80.4261 6016.42 94.2432C6009.64 107.799 6006.25 123.571 6006.25 141.56C6006.25 159.548 6009.64 175.451 6016.42 189.268C6023.45 202.824 6033.23 213.382 6045.74 220.942C6058.52 228.503 6073.12 232.283 6089.54 232.283C6105.97 232.283 6120.43 228.503 6132.95 220.942C6145.72 213.382 6155.5 202.824 6162.28 189.268C6169.32 175.451 6172.83 159.548 6172.83 141.56C6172.83 123.572 6169.32 107.799 6162.28 94.2432C6155.5 80.4261 6145.72 69.737 6132.95 62.1768C6120.43 54.6165 6105.97 50.8359 6089.54 50.8359Z" fill="black" fill-opacity="0.05"/>
<path d="M7369.35 0C7396.98 7.0632e-05 7421.49 5.99619 7442.87 17.9883C7464.24 29.9804 7480.8 46.6649 7492.53 68.042C7504.52 89.4193 7510.52 113.925 7510.52 141.56C7510.52 169.194 7504.52 193.83 7492.53 215.468C7480.8 236.845 7464.24 253.53 7442.87 265.522C7421.49 277.254 7396.98 283.119 7369.35 283.119C7332.59 283.119 7302.35 274.256 7278.63 256.528C7254.9 238.54 7240.3 213.643 7234.83 181.838H7294.27C7298.44 198.523 7306.78 211.166 7319.29 219.77C7332.07 228.112 7348.75 232.283 7369.35 232.283C7390.47 232.283 7407.93 226.156 7421.75 213.903C7435.57 201.65 7444.3 184.835 7447.95 163.458H7342.37V118.487H7447.95C7444.04 97.6317 7435.05 81.2079 7420.97 69.2158C7407.15 56.9631 7389.94 50.836 7369.35 50.8359C7349.28 50.8359 7332.59 55.399 7319.29 64.5234C7306.26 73.3872 7298.18 85.7702 7295.05 101.673H7235.61C7238.22 81.0776 7245.39 63.2192 7257.12 48.0986C7269.11 32.7175 7284.75 20.856 7304.04 12.5137C7323.34 4.1713 7345.1 0 7369.35 0Z" fill="black" fill-opacity="0.05"/>
<path fill-rule="evenodd" clip-rule="evenodd" d="M7953.51 0C7981.67 0 8006.57 5.99612 8028.2 17.9883C8050.1 29.7197 8067.05 46.4043 8079.04 68.042C8091.29 89.4193 8097.42 113.925 8097.42 141.56C8097.42 169.194 8091.29 193.83 8079.04 215.468C8067.05 236.845 8050.1 253.53 8028.2 265.522C8006.57 277.254 7981.67 283.119 7953.51 283.119C7925.36 283.119 7900.33 277.254 7878.43 265.522C7856.79 253.53 7839.85 236.845 7827.6 215.468C7815.6 193.83 7809.61 169.194 7809.61 141.56C7809.61 113.925 7815.6 89.4193 7827.6 68.042C7839.85 46.4041 7856.79 29.7197 7878.43 17.9883C7900.33 5.99625 7925.36 0 7953.51 0ZM7953.51 50.8359C7937.09 50.8359 7922.49 54.6166 7909.72 62.1768C7897.2 69.737 7887.43 80.4261 7880.39 94.2432C7873.61 107.799 7870.22 123.571 7870.22 141.56C7870.22 159.548 7873.61 175.451 7880.39 189.268C7887.43 202.824 7897.2 213.382 7909.72 220.942C7922.49 228.503 7937.09 232.283 7953.51 232.283C7969.94 232.283 7984.41 228.503 7996.92 220.942C8009.69 213.382 8019.47 202.824 8026.25 189.268C8033.29 175.451 8036.81 159.548 8036.81 141.56C8036.81 123.572 8033.29 107.799 8026.25 94.2432C8019.47 80.4261 8009.69 69.737 7996.92 62.1768C7984.41 54.6165 7969.94 50.8359 7953.51 50.8359Z" fill="black" fill-opacity="0.05"/>
<path fill-rule="evenodd" clip-rule="evenodd" d="M8596.99 0C8625.14 0 8650.04 5.99612 8671.68 17.9883C8693.58 29.7197 8710.52 46.4041 8722.52 68.042C8734.77 89.4193 8740.9 113.925 8740.9 141.56C8740.9 169.194 8734.77 193.83 8722.52 215.468C8710.52 236.845 8693.58 253.53 8671.68 265.522C8650.04 277.254 8625.14 283.119 8596.99 283.119C8568.83 283.119 8543.81 277.254 8521.91 265.522C8500.27 253.53 8483.33 236.845 8471.07 215.468C8459.08 193.83 8453.08 169.194 8453.08 141.56C8453.08 113.925 8459.08 89.4193 8471.07 68.042C8483.33 46.4041 8500.27 29.7197 8521.91 17.9883C8543.81 5.99612 8568.83 0 8596.99 0ZM8596.99 50.8359C8580.57 50.8359 8565.97 54.6165 8553.19 62.1768C8540.68 69.737 8530.9 80.4261 8523.86 94.2432C8517.09 107.799 8513.7 123.571 8513.7 141.56C8513.7 159.548 8517.09 175.451 8523.86 189.268C8530.9 202.824 8540.68 213.382 8553.19 220.942C8565.97 228.503 8580.57 232.283 8596.99 232.283C8613.41 232.283 8627.88 228.503 8640.4 220.942C8653.17 213.382 8662.95 202.824 8669.72 189.268C8676.76 175.451 8680.28 159.548 8680.28 141.56C8680.28 123.571 8676.76 107.799 8669.72 94.2432C8662.95 80.4261 8653.17 69.737 8640.4 62.1768C8627.88 54.6165 8613.41 50.8359 8596.99 50.8359Z" fill="black" fill-opacity="0.05"/>
<path fill-rule="evenodd" clip-rule="evenodd" d="M199.435 26.9824C245.317 27.5038 280.512 37.6714 305.018 57.4844C329.784 77.2975 342.168 105.322 342.168 141.56C342.168 177.797 329.784 205.823 305.018 225.636C280.512 245.449 245.317 255.615 199.435 256.137V282.337H142.732V256.137C96.8498 255.615 61.5251 245.449 36.7588 225.636C12.2531 205.823 0 177.797 0 141.56C4.12759e-05 105.322 12.2531 77.2975 36.7588 57.4844C61.5251 37.6713 96.8496 27.5039 142.732 26.9824V0.782227H199.435V26.9824ZM142.732 75.8633C116.141 76.3847 95.8072 82.381 81.7295 93.8516C67.6518 105.062 60.6123 120.964 60.6123 141.56C60.6123 162.155 67.6517 178.188 81.7295 189.659C95.8072 200.869 116.142 206.734 142.732 207.256V75.8633ZM199.435 207.256C226.026 206.734 246.361 200.869 260.438 189.659C274.516 178.188 281.555 162.155 281.555 141.56C281.555 120.964 274.516 105.062 260.438 93.8516C246.361 82.3809 226.026 76.3847 199.435 75.8633V207.256Z" fill="black" fill-opacity="0.05"/>
<path fill-rule="evenodd" clip-rule="evenodd" d="M5486.23 26.9824C5532.11 27.5038 5567.31 37.6712 5591.81 57.4844C5616.58 77.2975 5628.96 105.323 5628.96 141.56C5628.96 177.797 5616.58 205.823 5591.81 225.636C5567.31 245.449 5532.11 255.615 5486.23 256.137V282.337H5429.53V256.137C5383.64 255.615 5348.32 245.449 5323.55 225.636C5299.05 205.823 5286.79 177.797 5286.79 141.56C5286.79 105.322 5299.05 77.2975 5323.55 57.4844C5348.32 37.6714 5383.64 27.5038 5429.53 26.9824V0.782227H5486.23V26.9824ZM5429.53 75.8633C5402.94 76.3847 5382.6 82.381 5368.52 93.8516C5354.45 105.062 5347.41 120.964 5347.41 141.56C5347.41 162.155 5354.45 178.188 5368.52 189.659C5382.6 200.869 5402.94 206.734 5429.53 207.256V75.8633ZM5486.23 207.256C5512.82 206.734 5533.16 200.869 5547.23 189.659C5561.31 178.188 5568.35 162.155 5568.35 141.56C5568.35 120.964 5561.31 105.062 5547.23 93.8516C5533.16 82.3809 5512.82 76.3847 5486.23 75.8633V207.256Z" fill="black" fill-opacity="0.05"/>
<path d="M447.78 194.351H449.735L584.256 4.69238H643.305V278.427H586.603V88.7676H584.647L450.127 278.427H391.078V4.69238H447.78V194.351Z" fill="black" fill-opacity="0.05"/>
<path d="M766.653 112.23H903.521V4.69238H960.223V278.427H903.521V161.112H766.653V278.427H709.951V4.69238H766.653V112.23Z" fill="black" fill-opacity="0.05"/>
<path fill-rule="evenodd" clip-rule="evenodd" d="M1288.53 278.427H1228.31L1208.37 227.59H1073.85L1053.91 278.427H995.248L1106.31 4.69238H1177.48L1288.53 278.427ZM1092.62 180.664H1189.99L1142.28 59.4395H1140.33L1092.62 180.664Z" fill="black" fill-opacity="0.05"/>
<path d="M1380.34 112.23H1517.21V4.69238H1573.91V278.427H1517.21V161.112H1380.34V278.427H1323.64V4.69238H1380.34V112.23Z" fill="black" fill-opacity="0.05"/>
<path fill-rule="evenodd" clip-rule="evenodd" d="M2009.68 90.7227H2057.78C2095.85 90.7227 2124.65 98.6745 2144.21 114.577C2164.02 130.48 2173.92 153.813 2173.92 184.575C2173.92 215.337 2164.02 238.67 2144.21 254.572C2124.65 270.475 2095.85 278.427 2057.78 278.427H1952.98V4.69238H2009.68V90.7227ZM2009.68 229.545H2057.39C2075.9 229.545 2089.85 225.765 2099.23 218.205C2108.62 210.645 2113.31 199.435 2113.31 184.575C2113.31 169.715 2108.62 158.505 2099.23 150.944C2089.85 143.384 2075.9 139.605 2057.39 139.604H2009.68V229.545Z" fill="black" fill-opacity="0.05"/>
<path d="M2263.87 278.427H2207.16V4.69238H2263.87V278.427Z" fill="black" fill-opacity="0.05"/>
<path d="M2482.84 194.351H2484.79L2619.31 4.69238H2678.36V278.427H2621.66V88.7676H2619.71L2485.19 278.427H2426.14V4.69238H2482.84V194.351Z" fill="black" fill-opacity="0.05"/>
<path d="M2897.56 134.521L3011.75 4.69238H3078.23L2960.91 136.867L3087.22 278.427H3016.05L2897.56 145.079V278.427H2840.86V4.69238H2897.56V134.521Z" fill="black" fill-opacity="0.05"/>
<path fill-rule="evenodd" clip-rule="evenodd" d="M3229.2 4.69238C3266.74 4.69242 3295.42 13.035 3315.23 29.7197C3335.31 46.4044 3345.35 70.9098 3345.35 103.236C3345.35 135.824 3335.31 160.46 3315.23 177.145C3295.42 193.829 3266.74 202.172 3229.2 202.172H3173.28V278.427H3116.58V4.69238H3229.2ZM3173.28 153.291H3226.08C3265.18 153.291 3284.73 136.606 3284.73 103.236C3284.73 70.1278 3265.18 53.5732 3226.08 53.5732H3173.28V153.291Z" fill="black" fill-opacity="0.05"/>
<path d="M3615.06 51.6182H3454.73V116.142H3593.55V161.112H3454.73V231.501H3615.06V278.427H3398.03V4.69238H3615.06V51.6182Z" fill="black" fill-opacity="0.05"/>
<path d="M4048.18 194.351H4050.13L4184.65 4.69238H4243.7V278.427H4187V88.7676H4185.05L4050.53 278.427H3991.48V4.69238H4048.18V194.351Z" fill="black" fill-opacity="0.05"/>
<path d="M4532.46 53.5732H4436.66V278.427H4379.96V53.5732H4284.15V4.69238H4532.46V53.5732Z" fill="black" fill-opacity="0.05"/>
<path d="M5042.22 194.351H5044.18L5178.7 4.69238H5237.75V278.427H5181.04V88.7676H5179.09L5044.57 278.427H4985.52V4.69238H5042.22V194.351Z" fill="black" fill-opacity="0.05"/>
<path fill-rule="evenodd" clip-rule="evenodd" d="M5790.5 4.69238C5828.04 4.69238 5856.71 13.035 5876.53 29.7197C5896.6 46.4044 5906.64 70.91 5906.64 103.236C5906.64 135.823 5896.6 160.46 5876.53 177.145C5856.71 193.829 5828.04 202.172 5790.5 202.172H5734.58V278.427H5677.87V4.69238H5790.5ZM5734.58 153.291H5787.37C5826.47 153.291 5846.02 136.606 5846.02 103.236C5846.02 70.1279 5826.47 53.5734 5787.37 53.5732H5734.58V153.291Z" fill="black" fill-opacity="0.05"/>
<path fill-rule="evenodd" clip-rule="evenodd" d="M6419.95 4.69238C6448.63 4.69245 6470.66 10.6886 6486.04 22.6807C6501.42 34.4121 6509.11 51.3575 6509.11 73.5166C6509.11 100.629 6496.99 119.922 6472.75 131.393V133.348C6488.39 137.78 6500.64 145.991 6509.5 157.983C6518.37 169.976 6522.8 184.314 6522.8 200.999C6522.8 226.026 6514.59 245.188 6498.16 258.483C6481.74 271.779 6458.02 278.427 6426.99 278.427H6286.21V4.69238H6419.95ZM6342.92 229.545H6417.22C6447.2 229.545 6462.19 218.074 6462.19 195.133C6462.19 183.402 6458.54 174.799 6451.24 169.324C6443.94 163.85 6432.73 161.112 6417.61 161.112H6342.92V229.545ZM6342.92 114.187H6409.4C6435.46 114.186 6448.5 104.019 6448.5 83.6846C6448.5 73.5173 6445.24 65.9562 6438.72 61.0029C6432.47 56.0498 6422.69 53.5733 6409.4 53.5732H6342.92V114.187Z" fill="black" fill-opacity="0.05"/>
<path fill-rule="evenodd" clip-rule="evenodd" d="M6831.96 278.427H6771.74L6751.79 227.59H6617.27L6597.33 278.427H6538.67L6649.73 4.69238H6720.9L6831.96 278.427ZM6636.04 180.664H6733.41L6685.71 59.4395H6683.75L6636.04 180.664Z" fill="black" fill-opacity="0.05"/>
<path fill-rule="evenodd" clip-rule="evenodd" d="M7088.18 278.427H7031.48V188.485H6967.74L6911.43 278.427H6845.73L6909.48 177.536C6895.66 172.583 6883.8 163.198 6873.89 149.381C6864.24 135.564 6859.42 117.445 6859.42 95.0244C6859.42 66.869 6868.68 44.8401 6887.19 28.9375C6905.96 12.7741 6932.03 4.69238 6965.4 4.69238H7088.18V278.427ZM6967.35 53.5732C6953.01 53.5732 6941.54 57.4838 6932.94 65.3047C6924.34 73.1257 6920.03 83.5539 6920.03 96.5889C6920.03 110.145 6924.07 120.703 6932.16 128.264C6940.24 135.824 6951.58 139.604 6966.18 139.604H7031.48V53.5732H6967.35Z" fill="black" fill-opacity="0.05"/>
<path d="M7619.93 134.521L7734.12 4.69238H7800.6L7683.28 136.867L7809.59 278.427H7738.42L7619.93 145.079V278.427H7563.23V4.69238H7619.93V134.521Z" fill="black" fill-opacity="0.05"/>
<path d="M8206.89 112.23H8343.76V4.69238H8400.46V278.427H8343.76V161.112H8206.89V278.427H8150.19V4.69238H8206.89V112.23Z" fill="black" fill-opacity="0.05"/>
<path d="M8952.82 150.554H8954.77L9045.11 4.69238H9114.32V278.427H9059.58V81.7285H9057.62L8974.72 215.468H8933.27L8850.36 81.7285H8848.41V278.427H8793.66V4.69238H8862.1L8952.82 150.554Z" fill="black" fill-opacity="0.05"/>
<path d="M9237.59 194.351H9239.55L9374.07 4.69238H9433.12V278.427H9376.42V88.7676H9374.46L9239.94 278.427H9180.89V4.69238H9237.59V194.351Z" fill="black" fill-opacity="0.05"/>
<path fill-rule="evenodd" clip-rule="evenodd" d="M9556.47 134.521L9670.65 4.69238H9737.13L9619.82 136.867L9739.55 271.059L9847.62 4.69238H9918.79L10029.8 278.427H9969.63L9949.68 227.59H9815.16L9795.22 278.427H9674.95L9556.47 145.079V278.427H9499.76V4.69238H9556.47V134.521ZM9833.93 180.664H9931.3L9883.59 59.4395H9881.64L9833.93 180.664Z" fill="black" fill-opacity="0.05"/>
</svg>
