<svg width="508" height="1712" viewBox="0 0 508 1712" fill="none" xmlns="http://www.w3.org/2000/svg">
<path fill-rule="evenodd" clip-rule="evenodd" d="M418.335 1226.5L418.335 1144.54L507.418 1144.54L507.418 1711.11L418.335 1711.11L418.335 1696.86C418.335 1675.48 410.733 1659.32 395.529 1648.4C380.326 1636.99 356.332 1630.1 323.55 1627.73L8.55175 1605.64L8.55174 1226.5L418.335 1226.5ZM322.125 1527.96C345.405 1529.86 364.173 1533.66 378.426 1539.36C392.679 1545.06 404.794 1553.85 414.771 1565.73L418.335 1565.73L418.335 1329.83L97.6347 1329.83L97.6348 1511.56L322.125 1527.96Z" fill="white" fill-opacity="0.12"/>
<path fill-rule="evenodd" clip-rule="evenodd" d="M-6.33312e-05 262.261C-3.09119e-05 210.949 10.9271 165.576 32.7822 126.142C54.1621 86.2323 84.5697 55.3502 124.004 33.4951C162.963 11.165 207.624 -9.07552e-06 257.985 -1.12769e-05C308.347 3.16269e-05 353.245 11.165 392.679 33.4951C431.638 55.3502 462.045 86.2323 483.9 126.142C494.24 145.212 502.079 165.673 507.418 187.521L507.418 337.189C502.079 359.157 494.24 379.792 483.9 399.093C462.045 438.527 431.638 469.409 392.679 491.739C353.245 513.594 308.347 524.521 257.985 524.521C207.624 524.521 162.963 513.594 124.004 491.739C84.5697 469.409 54.1621 438.527 32.7822 399.093C10.9271 359.184 -6.10883e-05 313.573 -6.33312e-05 262.261ZM92.6464 262.261C92.6464 292.193 99.5354 318.799 113.313 342.079C127.092 364.884 146.572 382.701 171.753 395.529C196.459 407.882 225.203 414.059 257.985 414.059C290.768 414.059 319.75 407.882 344.931 395.529C369.636 382.701 388.878 364.884 402.656 342.079C416.434 318.799 423.323 292.193 423.323 262.261C423.323 232.329 416.434 205.96 402.656 183.155C388.878 159.875 369.636 142.058 344.931 129.705C319.75 116.877 290.768 110.463 257.985 110.463C225.203 110.463 196.459 116.877 171.753 129.705C146.572 142.058 127.092 159.875 113.313 183.155C99.5354 205.96 92.6465 232.329 92.6464 262.261Z" fill="white" fill-opacity="0.12"/>
<path d="M507.418 620.593L507.418 723.93L97.6347 723.93L97.6347 966.235L507.418 966.235L507.418 1069.57L8.55173 1069.57L8.55171 620.593L507.418 620.593Z" fill="white" fill-opacity="0.12"/>
</svg>
