<svg width="1712" height="508" viewBox="0 0 1712 508" fill="none" xmlns="http://www.w3.org/2000/svg">
<path fill-rule="evenodd" clip-rule="evenodd" d="M484.612 418.335H566.569V507.418H0V418.335H14.2529C35.6328 418.335 51.7863 410.733 62.7139 395.529C74.1165 380.326 81.0063 356.332 83.3818 323.55L105.475 8.55176H484.612V418.335ZM183.155 322.125C181.255 345.405 177.453 364.173 171.752 378.426C166.051 392.679 157.261 404.794 145.384 414.771V418.335H381.276V97.6348H199.546L183.155 322.125Z" fill="white" fill-opacity="0.12"/>
<path fill-rule="evenodd" clip-rule="evenodd" d="M1448.85 0C1500.16 3.46622e-05 1545.53 10.9272 1584.97 32.7822C1624.88 54.1622 1655.76 84.5697 1677.62 124.004C1699.95 162.963 1711.11 207.624 1711.11 257.985C1711.11 308.347 1699.95 353.245 1677.62 392.679C1655.76 431.638 1624.88 462.045 1584.97 483.9C1565.9 494.24 1545.44 502.079 1523.59 507.418H1373.92C1351.95 502.079 1331.32 494.24 1312.02 483.9C1272.58 462.045 1241.7 431.638 1219.37 392.679C1197.52 353.245 1186.59 308.347 1186.59 257.985C1186.59 207.624 1197.52 162.963 1219.37 124.004C1241.7 84.5697 1272.58 54.1622 1312.02 32.7822C1351.93 10.9272 1397.54 0 1448.85 0ZM1448.85 92.6465C1418.92 92.6465 1392.31 99.5355 1369.03 113.313C1346.23 127.092 1328.41 146.572 1315.58 171.753C1303.23 196.459 1297.05 225.203 1297.05 257.985C1297.05 290.768 1303.23 319.75 1315.58 344.931C1328.41 369.636 1346.23 388.878 1369.03 402.656C1392.31 416.434 1418.92 423.323 1448.85 423.323C1478.78 423.323 1505.15 416.434 1527.96 402.656C1551.24 388.878 1569.05 369.636 1581.41 344.931C1594.23 319.75 1600.65 290.768 1600.65 257.985C1600.65 225.203 1594.23 196.459 1581.41 171.753C1569.05 146.572 1551.24 127.092 1527.96 113.313C1505.15 99.5355 1478.78 92.6465 1448.85 92.6465Z" fill="white" fill-opacity="0.12"/>
<path d="M1090.52 507.418H987.181V97.6348H744.875V507.418H641.538V8.55176H1090.52V507.418Z" fill="white" fill-opacity="0.12"/>
</svg>
