<svg width="243" height="45" viewBox="0 0 243 45" fill="none" xmlns="http://www.w3.org/2000/svg">
<path d="M124.914 30.8988C124.574 30.8988 124.259 30.8746 123.968 30.8261C123.693 30.7937 123.426 30.7371 123.167 30.6563V27.7454C123.669 27.9071 124.178 27.988 124.696 27.988C125.1 27.988 125.464 27.9314 125.787 27.8182C126.111 27.6888 126.402 27.4948 126.66 27.236C126.935 26.9611 127.178 26.6134 127.388 26.193L128.092 24.7618L128.043 26.7994L120.523 13.6279H124.332L129.159 22.4817H129.28L133.404 13.6279H137.018L130.978 26.1445C130.412 27.3088 129.846 28.2387 129.28 28.934C128.714 29.6132 128.083 30.1145 127.388 30.4379C126.693 30.7452 125.868 30.8988 124.914 30.8988Z" fill="black"/>
<path d="M103.309 30.6077L110.198 13.6279H114.612L121.501 30.6077H117.766L112.429 17.0239H112.308L106.947 30.6077H103.309ZM106.51 27.4543L107.626 24.5435H117.086L118.202 27.4543H106.51Z" fill="black"/>
<path d="M91.9121 30.6077V13.6279H104.768V16.66H95.4294V30.6077H91.9121Z" fill="black"/>
<path d="M74.3359 30.6077V13.6279H87.3134V16.5388H77.8532V27.6969H81.9041C82.9714 27.6969 83.7719 27.4948 84.3055 27.0905C84.8553 26.6862 85.1302 26.0798 85.1302 25.2712C85.1302 24.4627 84.8634 23.8562 84.3298 23.452C83.7961 23.0477 82.9876 22.8455 81.9041 22.8455H76.1552V19.9347H82.1224C83.6101 19.9347 84.8553 20.1369 85.8579 20.5411C86.8606 20.9454 87.6125 21.5438 88.1138 22.3361C88.6313 23.1285 88.8901 24.1069 88.8901 25.2712C88.8901 27.0177 88.316 28.3438 87.1678 29.2494C86.0197 30.1549 84.3379 30.6077 82.1224 30.6077H74.3359Z" fill="black"/>
<path d="M60.5292 30.8988C60.1896 30.8988 59.8742 30.8746 59.5831 30.8261C59.3082 30.7937 59.0414 30.7371 58.7827 30.6563V27.7454C59.284 27.9071 59.7934 27.988 60.3109 27.988C60.7151 27.988 61.079 27.9314 61.4024 27.8182C61.7258 27.6888 62.0169 27.4948 62.2757 27.236C62.5506 26.9611 62.7931 26.6134 63.0034 26.193L63.7068 24.7618L63.6583 26.7994L56.1387 13.6279H59.947L64.7741 22.4817H64.8954L69.0191 13.6279H72.6333L66.5934 26.1445C66.0274 27.3088 65.4614 28.2387 64.8954 28.934C64.3294 29.6132 63.6987 30.1145 63.0034 30.4379C62.308 30.7452 61.4833 30.8988 60.5292 30.8988Z" fill="black"/>
<path d="M50.619 30.6077L42.9781 22.0208L50.3522 13.6279H54.4759L46.3498 22.797L46.5196 21.0748L55.0338 30.6077H50.619ZM39.752 30.6077V13.6279H43.2692V30.6077H39.752Z" fill="black"/>
<path d="M11.4599 32.271L11.4144 32.2255C9.21616 28.7841 9.47579 25.155 12.1668 21.7117C13.2925 20.2752 18.3902 14.9444 21.8165 11.3911C22.5025 12.8939 22.8455 14.5142 22.8455 16.1364C22.8455 18.871 21.8695 21.6074 19.9176 23.7792L19.4401 24.2681L11.4599 32.2729V32.271Z" fill="url(#paint0_radial_186_2759)"/>
<path d="M3.50312 23.8248C3.46711 23.6865 3.4368 23.5444 3.41406 23.4004C3.4387 23.5463 3.46901 23.6865 3.50312 23.8248Z" fill="url(#paint1_radial_186_2759)"/>
<path d="M22.8453 33.5215V40.302C19.5479 40.302 13.9537 41.6892 11.5867 44.8805C11.5318 44.818 11.4787 44.7555 11.4219 44.6948V36.8947C11.4446 36.9099 11.4655 36.9269 11.4882 36.9421C14.7837 34.5846 18.7766 33.5878 22.8435 33.5215H22.8453Z" fill="url(#paint2_radial_186_2759)"/>
<path d="M11.4216 36.8947V44.6948C8.35725 41.278 4.29802 40.302 0 40.302V33.5215C4.0365 33.5878 8.15258 34.5713 11.4216 36.8947Z" fill="url(#paint3_radial_186_2759)"/>
<path d="M15.2961 3.87162C13.1585 6.01873 8.10057 11.0975 5.80564 13.3659C3.47092 15.6741 1.87148 19.271 1.87338 22.3675C-1.02229 17.9425 -0.529571 11.9503 3.35342 8.05973L11.4359 0L15.2961 3.87162Z" fill="url(#paint4_radial_186_2759)"/>
<path d="M11.0033 20.7999C8.82022 23.5895 8.04135 26.5761 8.67809 29.4945L3.78123 24.6128C3.78123 24.6128 3.77744 24.609 3.77744 24.6052C3.76039 24.5673 3.74333 24.5256 3.72438 24.4858C3.70543 24.4442 3.68837 24.4025 3.67132 24.3589C3.65995 24.3342 3.65237 24.3077 3.641 24.2812C3.61826 24.2205 3.59552 24.158 3.57846 24.0936C3.55003 24.0045 3.5235 23.9135 3.50076 23.8226C3.46665 23.6842 3.43633 23.5421 3.41169 23.3981C3.40222 23.3507 3.39464 23.3033 3.38895 23.2522C3.37758 23.1877 3.3719 23.1214 3.36432 23.0551C3.35674 22.9963 3.35295 22.9357 3.34916 22.8769C3.34916 22.8542 3.34537 22.8296 3.34347 22.8068C3.33968 22.7575 3.33589 22.7064 3.33399 22.6552C3.33399 22.6135 3.3302 22.5699 3.32831 22.5263C3.26198 19.8297 4.74582 16.4906 6.84366 14.4173C7.02748 14.2354 7.22836 14.0364 7.44629 13.8223L7.61116 13.6574C7.77983 13.4907 7.95417 13.3163 8.1361 13.1363L8.31992 12.9525C8.50753 12.7667 8.69893 12.5753 8.89791 12.3764C8.96424 12.31 9.03057 12.2456 9.0969 12.1774C9.16701 12.1073 9.23903 12.0352 9.31293 11.9632C9.37547 11.8988 9.4399 11.8363 9.50623 11.7699C10.3022 10.974 11.1549 10.1212 11.9926 9.2817C12.0494 9.22485 12.1044 9.16801 12.1631 9.11116C12.2749 8.99745 12.3867 8.88374 12.5004 8.77193L12.6691 8.60328C12.726 8.54643 12.779 8.49147 12.8359 8.43461C12.8927 8.37776 12.9458 8.3228 13.0026 8.26785C13.0595 8.211 13.1125 8.15604 13.1675 8.10108C13.2357 8.03286 13.3039 7.96463 13.3722 7.89641C13.4669 7.80166 13.5617 7.7069 13.6545 7.61215C13.7076 7.55909 13.7607 7.50793 13.8137 7.45297C14.026 7.24072 14.2306 7.03416 14.4296 6.83518C14.4789 6.78401 14.5301 6.73474 14.5793 6.68547C15.2672 5.99377 15.8737 5.38355 16.3436 4.91357L19.4895 8.06697C19.8287 8.40808 20.1641 8.75298 20.4578 9.132C20.6815 9.42005 20.8899 9.71568 21.0813 10.0208C17.6418 13.5816 12.22 19.246 11.0071 20.7961L11.0033 20.7999Z" fill="url(#paint5_radial_186_2759)"/>
<path d="M22.8455 16.1345C22.8455 18.8691 21.8695 21.6055 19.9176 23.7773L19.4401 24.2662L11.4599 32.271L11.4144 32.2255C9.21616 28.784 9.47579 25.155 12.1668 21.7117C13.2925 20.2752 18.3902 14.9444 21.8165 11.3911C22.5025 12.8939 22.8455 14.5142 22.8455 16.1364V16.1345Z" fill="url(#paint6_radial_186_2759)"/>
<path d="M152.5 0V43.5H151.5V0H152.5Z" fill="black"/>
<path d="M233.936 36.0001H232.925V27.4888H229.404V26.5581H237.457V27.4888H233.936V36.0001Z" fill="black"/>
<path d="M221.027 36.0001H219.854V26.5581H220.865V34.6377H220.906L226.598 26.5581H227.771V36.0001H226.76V27.9205H226.706L221.027 36.0001Z" fill="black"/>
<path d="M216.601 35.0694H218.058V38.2931H217.046V36.0001H209.088V38.2931H208.076V35.0694H208.346C209.164 35.0694 209.618 34.4444 209.708 33.1945L210.18 26.5581H216.601V35.0694ZM209.978 35.0694H215.589V27.4888H211.111L210.693 33.2754C210.63 34.0847 210.392 34.6692 209.978 35.0289V35.0694Z" fill="black"/>
<path d="M207.078 26.5581V27.4888H201.197V30.7261H206.336V31.6028H201.197V35.0694H207.078V36.0001H200.186V26.5581H207.078Z" fill="black"/>
<path d="M194.393 26.5581C195.571 26.5581 196.48 26.8369 197.118 27.3944C197.757 27.9519 198.076 28.7477 198.076 29.7819C198.076 30.816 197.757 31.6118 197.118 32.1693C196.489 32.7179 195.58 32.9921 194.393 32.9921H191.871V36.0001H190.859V26.5581H194.393ZM194.393 32.0749C195.248 32.0749 195.9 31.8771 196.349 31.4814C196.799 31.0858 197.024 30.5192 197.024 29.7819C197.024 29.0445 196.799 28.478 196.349 28.0823C195.9 27.6866 195.248 27.4888 194.393 27.4888H191.871V32.0749H194.393Z" fill="black"/>
<path d="M184.325 31.1577L189.465 36.0001H188.116L183.125 31.3331V36.0001H182.113V26.5581H183.125V31.1037L187.859 26.5581H189.1L184.325 31.1577Z" fill="black"/>
<path d="M169.509 36.0001H168.336V26.5581H169.348V34.6377H169.388L175.08 26.5581H176.254V36.0001H175.242V27.9205H175.188L169.509 36.0001Z" fill="black"/>
<path d="M235.921 10.8088C237.126 10.8088 238.047 11.0741 238.686 11.6047C239.324 12.1352 239.644 12.9041 239.644 13.9112C239.644 14.9004 239.32 15.6647 238.672 16.2043C238.034 16.7348 237.117 17.0001 235.921 17.0001H232.67V7.55811H233.682V10.8088H235.921ZM241.303 17.0001V7.55811H242.314V17.0001H241.303ZM235.921 16.0694C236.793 16.0694 237.454 15.8895 237.903 15.5298C238.362 15.1612 238.591 14.6216 238.591 13.9112C238.591 13.2008 238.362 12.6613 237.903 12.2926C237.454 11.9239 236.793 11.7396 235.921 11.7396H233.682V16.0694H235.921Z" fill="black"/>
<path d="M226.196 17.1351C225.261 17.1351 224.438 16.9283 223.728 16.5146C223.017 16.101 222.469 15.5255 222.082 14.7881C221.695 14.0507 221.502 13.2144 221.502 12.2792C221.502 11.344 221.695 10.5077 222.082 9.77035C222.469 9.03297 223.017 8.45746 223.728 8.04381C224.438 7.63016 225.261 7.42334 226.196 7.42334C226.987 7.42334 227.693 7.57171 228.314 7.86846C228.934 8.16521 229.433 8.56987 229.811 9.08243C230.189 9.595 230.427 10.166 230.526 10.7955H229.487C229.397 10.3459 229.208 9.93671 228.921 9.56802C228.633 9.19034 228.255 8.89359 227.788 8.67778C227.32 8.46196 226.789 8.35405 226.196 8.35405C225.468 8.35405 224.829 8.5249 224.281 8.86661C223.732 9.19933 223.305 9.66244 222.999 10.2559C222.702 10.8494 222.554 11.5239 222.554 12.2792C222.554 13.0346 222.702 13.709 222.999 14.3025C223.305 14.896 223.732 15.3636 224.281 15.7053C224.829 16.038 225.468 16.2044 226.196 16.2044C227.095 16.2044 227.833 15.9796 228.408 15.53C228.984 15.0803 229.352 14.4913 229.514 13.763H230.553C230.427 14.4014 230.171 14.9769 229.784 15.4895C229.406 16.0021 228.907 16.4067 228.287 16.7035C227.675 16.9912 226.978 17.1351 226.196 17.1351Z" fill="black"/>
<path d="M218.288 11.6586V7.55811H219.3V17.0001H218.288V12.5893H212.461V17.0001H211.449V7.55811H212.461V11.6586H218.288Z" fill="black"/>
<path d="M209.833 17.0001H208.754L207.864 14.8149H202.657L201.753 17.0001H200.701L204.613 7.55811H205.935L209.833 17.0001ZM205.247 8.52928L203.021 13.9382H207.499L205.287 8.52928H205.247Z" fill="black"/>
<path d="M198.081 11.6586V7.55811H199.093V17.0001H198.081V12.5893H192.254V17.0001H191.242V7.55811H192.254V11.6586H198.081Z" fill="black"/>
<path d="M181.826 17.0001H180.652V7.55811H181.664V15.6377H181.704L187.397 7.55811H188.57V17.0001H187.558V8.92045H187.505L181.826 17.0001Z" fill="black"/>
<path d="M178.587 12.2792C178.587 13.5651 178.137 14.5408 177.238 15.2062C176.339 15.8627 175.147 16.1954 173.663 16.2044V17.1351H172.652V16.2044C171.159 16.1954 169.963 15.8627 169.064 15.2062C168.174 14.5408 167.729 13.5651 167.729 12.2792C167.729 11.0023 168.174 10.0356 169.064 9.37918C169.954 8.71375 171.15 8.37203 172.652 8.35405V7.42334H173.663V8.35405C175.165 8.37203 176.361 8.71375 177.251 9.37918C178.142 10.0356 178.587 11.0023 178.587 12.2792ZM168.781 12.2792C168.781 13.2774 169.131 14.0282 169.833 14.5318C170.534 15.0264 171.474 15.2782 172.652 15.2872V9.27127C171.465 9.28026 170.521 9.53205 169.819 10.0266C169.127 10.5212 168.781 11.2721 168.781 12.2792ZM173.663 15.2872C174.841 15.2782 175.781 15.0264 176.483 14.5318C177.184 14.0282 177.535 13.2774 177.535 12.2792C177.535 11.2721 177.184 10.5212 176.483 10.0266C175.79 9.53205 174.85 9.28026 173.663 9.27127V15.2872Z" fill="black"/>
<defs>
<radialGradient id="paint0_radial_186_2759" cx="0" cy="0" r="1" gradientUnits="userSpaceOnUse" gradientTransform="translate(29.5919 14.897) scale(37.4541 37.4541)">
<stop stop-color="#EBFF00"/>
<stop offset="1" stop-color="#008900"/>
</radialGradient>
<radialGradient id="paint1_radial_186_2759" cx="0" cy="0" r="1" gradientUnits="userSpaceOnUse" gradientTransform="translate(3.46712 23.3966) scale(0.468005 0.46803)">
<stop stop-color="#EBFF00"/>
<stop offset="1" stop-color="#008900"/>
</radialGradient>
<radialGradient id="paint2_radial_186_2759" cx="0" cy="0" r="1" gradientUnits="userSpaceOnUse" gradientTransform="translate(-1.94214 23.9817) scale(47.9395 47.9395)">
<stop stop-color="#EBFF00"/>
<stop offset="1" stop-color="#008900"/>
</radialGradient>
<radialGradient id="paint3_radial_186_2759" cx="0" cy="0" r="1" gradientUnits="userSpaceOnUse" gradientTransform="translate(-5.38578 35.1475) scale(23.3283 23.3283)">
<stop stop-color="#EBFF00"/>
<stop offset="1" stop-color="#008900"/>
</radialGradient>
<radialGradient id="paint4_radial_186_2759" cx="0" cy="0" r="1" gradientUnits="userSpaceOnUse" gradientTransform="translate(12.0916 -3.14961) scale(35.7941 35.7941)">
<stop stop-color="#EBFF00"/>
<stop offset="1" stop-color="#008900"/>
</radialGradient>
<radialGradient id="paint5_radial_186_2759" cx="0" cy="0" r="1" gradientUnits="userSpaceOnUse" gradientTransform="translate(19.6069 -4.40258) scale(42.9328 42.9328)">
<stop stop-color="#EBFF00"/>
<stop offset="1" stop-color="#008900"/>
</radialGradient>
<radialGradient id="paint6_radial_186_2759" cx="0" cy="0" r="1" gradientUnits="userSpaceOnUse" gradientTransform="translate(36.4199 19.286) scale(34.8446 34.8446)">
<stop stop-color="#EBFF00"/>
<stop offset="1" stop-color="#008900"/>
</radialGradient>
</defs>
</svg>
