<svg width="372" height="45" viewBox="0 0 372 45" fill="none" xmlns="http://www.w3.org/2000/svg">
<path d="M124.914 30.8988C124.574 30.8988 124.259 30.8746 123.968 30.8261C123.693 30.7937 123.426 30.7371 123.167 30.6563V27.7454C123.669 27.9071 124.178 27.988 124.696 27.988C125.1 27.988 125.464 27.9314 125.787 27.8182C126.111 27.6888 126.402 27.4948 126.66 27.236C126.935 26.9611 127.178 26.6134 127.388 26.193L128.092 24.7618L128.043 26.7994L120.523 13.6279H124.332L129.159 22.4817H129.28L133.404 13.6279H137.018L130.978 26.1445C130.412 27.3088 129.846 28.2387 129.28 28.934C128.714 29.6132 128.083 30.1145 127.388 30.4379C126.693 30.7452 125.868 30.8988 124.914 30.8988Z" fill="black"/>
<path d="M103.309 30.6077L110.198 13.6279H114.612L121.501 30.6077H117.766L112.429 17.0239H112.308L106.947 30.6077H103.309ZM106.51 27.4543L107.626 24.5435H117.086L118.202 27.4543H106.51Z" fill="black"/>
<path d="M91.9121 30.6077V13.6279H104.768V16.66H95.4294V30.6077H91.9121Z" fill="black"/>
<path d="M74.3359 30.6077V13.6279H87.3134V16.5388H77.8532V27.6969H81.9041C82.9714 27.6969 83.7719 27.4948 84.3055 27.0905C84.8553 26.6862 85.1302 26.0798 85.1302 25.2712C85.1302 24.4627 84.8634 23.8562 84.3298 23.452C83.7961 23.0477 82.9876 22.8455 81.9041 22.8455H76.1552V19.9347H82.1224C83.6101 19.9347 84.8553 20.1369 85.8579 20.5411C86.8606 20.9454 87.6125 21.5438 88.1138 22.3361C88.6313 23.1285 88.8901 24.1069 88.8901 25.2712C88.8901 27.0177 88.316 28.3438 87.1678 29.2494C86.0197 30.1549 84.3379 30.6077 82.1224 30.6077H74.3359Z" fill="black"/>
<path d="M60.5292 30.8988C60.1896 30.8988 59.8742 30.8746 59.5831 30.8261C59.3082 30.7937 59.0414 30.7371 58.7827 30.6563V27.7454C59.284 27.9071 59.7934 27.988 60.3109 27.988C60.7151 27.988 61.079 27.9314 61.4024 27.8182C61.7258 27.6888 62.0169 27.4948 62.2757 27.236C62.5506 26.9611 62.7931 26.6134 63.0034 26.193L63.7068 24.7618L63.6583 26.7994L56.1387 13.6279H59.947L64.7741 22.4817H64.8954L69.0191 13.6279H72.6333L66.5934 26.1445C66.0274 27.3088 65.4614 28.2387 64.8954 28.934C64.3294 29.6132 63.6987 30.1145 63.0034 30.4379C62.308 30.7452 61.4833 30.8988 60.5292 30.8988Z" fill="black"/>
<path d="M50.619 30.6077L42.9781 22.0208L50.3522 13.6279H54.4759L46.3498 22.797L46.5196 21.0748L55.0338 30.6077H50.619ZM39.752 30.6077V13.6279H43.2692V30.6077H39.752Z" fill="black"/>
<path d="M11.4599 32.271L11.4144 32.2255C9.21616 28.7841 9.47579 25.155 12.1668 21.7117C13.2925 20.2752 18.3902 14.9444 21.8165 11.3911C22.5025 12.8939 22.8455 14.5142 22.8455 16.1364C22.8455 18.871 21.8695 21.6074 19.9176 23.7792L19.4401 24.2681L11.4599 32.2729V32.271Z" fill="url(#paint0_radial_186_2740)"/>
<path d="M3.50312 23.8248C3.46711 23.6865 3.4368 23.5444 3.41406 23.4004C3.4387 23.5463 3.46901 23.6865 3.50312 23.8248Z" fill="url(#paint1_radial_186_2740)"/>
<path d="M22.8453 33.5215V40.302C19.5479 40.302 13.9537 41.6892 11.5867 44.8805C11.5318 44.818 11.4787 44.7555 11.4219 44.6948V36.8947C11.4446 36.9099 11.4655 36.9269 11.4882 36.9421C14.7837 34.5846 18.7766 33.5878 22.8435 33.5215H22.8453Z" fill="url(#paint2_radial_186_2740)"/>
<path d="M11.4216 36.8947V44.6948C8.35725 41.278 4.29802 40.302 0 40.302V33.5215C4.0365 33.5878 8.15258 34.5713 11.4216 36.8947Z" fill="url(#paint3_radial_186_2740)"/>
<path d="M15.2961 3.87162C13.1585 6.01873 8.10057 11.0975 5.80564 13.3659C3.47092 15.6741 1.87148 19.271 1.87338 22.3675C-1.02229 17.9425 -0.529571 11.9503 3.35342 8.05973L11.4359 0L15.2961 3.87162Z" fill="url(#paint4_radial_186_2740)"/>
<path d="M11.0033 20.7999C8.82022 23.5895 8.04135 26.5761 8.67809 29.4945L3.78123 24.6128C3.78123 24.6128 3.77744 24.609 3.77744 24.6052C3.76039 24.5673 3.74333 24.5256 3.72438 24.4858C3.70543 24.4442 3.68837 24.4025 3.67132 24.3589C3.65995 24.3342 3.65237 24.3077 3.641 24.2812C3.61826 24.2205 3.59552 24.158 3.57846 24.0936C3.55003 24.0045 3.5235 23.9135 3.50076 23.8226C3.46665 23.6842 3.43633 23.5421 3.41169 23.3981C3.40222 23.3507 3.39464 23.3033 3.38895 23.2522C3.37758 23.1877 3.3719 23.1214 3.36432 23.0551C3.35674 22.9963 3.35295 22.9357 3.34916 22.8769C3.34916 22.8542 3.34537 22.8296 3.34347 22.8068C3.33968 22.7575 3.33589 22.7064 3.33399 22.6552C3.33399 22.6135 3.3302 22.5699 3.32831 22.5263C3.26198 19.8297 4.74582 16.4906 6.84366 14.4173C7.02748 14.2354 7.22836 14.0364 7.44629 13.8223L7.61116 13.6574C7.77983 13.4907 7.95417 13.3163 8.1361 13.1363L8.31992 12.9525C8.50753 12.7667 8.69893 12.5753 8.89791 12.3764C8.96424 12.31 9.03057 12.2456 9.0969 12.1774C9.16701 12.1073 9.23903 12.0352 9.31293 11.9632C9.37547 11.8988 9.4399 11.8363 9.50623 11.7699C10.3022 10.974 11.1549 10.1212 11.9926 9.2817C12.0494 9.22485 12.1044 9.16801 12.1631 9.11116C12.2749 8.99745 12.3867 8.88374 12.5004 8.77193L12.6691 8.60328C12.726 8.54643 12.779 8.49147 12.8359 8.43461C12.8927 8.37776 12.9458 8.3228 13.0026 8.26785C13.0595 8.211 13.1125 8.15604 13.1675 8.10108C13.2357 8.03286 13.3039 7.96463 13.3722 7.89641C13.4669 7.80166 13.5617 7.7069 13.6545 7.61215C13.7076 7.55909 13.7607 7.50793 13.8137 7.45297C14.026 7.24072 14.2306 7.03416 14.4296 6.83518C14.4789 6.78401 14.5301 6.73474 14.5793 6.68547C15.2672 5.99377 15.8737 5.38355 16.3436 4.91357L19.4895 8.06697C19.8287 8.40808 20.1641 8.75298 20.4578 9.132C20.6815 9.42005 20.8899 9.71568 21.0813 10.0208C17.6418 13.5816 12.22 19.246 11.0071 20.7961L11.0033 20.7999Z" fill="url(#paint5_radial_186_2740)"/>
<path d="M22.8455 16.1345C22.8455 18.8691 21.8695 21.6055 19.9176 23.7773L19.4401 24.2662L11.4599 32.271L11.4144 32.2255C9.21616 28.784 9.47579 25.155 12.1668 21.7117C13.2925 20.2752 18.3902 14.9444 21.8165 11.3911C22.5025 12.8939 22.8455 14.5142 22.8455 16.1364V16.1345Z" fill="url(#paint6_radial_186_2740)"/>
<path d="M152.5 0V43.5H151.5V0H152.5Z" fill="black"/>
<path d="M364.566 35.9999H363.393V26.5579H364.404V34.6376H364.445L370.137 26.5579H371.31V35.9999H370.299V27.9203H370.245L364.566 35.9999ZM367.358 25.6272C366.72 25.6272 366.216 25.4744 365.847 25.1686C365.479 24.8539 365.294 24.4267 365.294 23.8872H366.09C366.09 24.2019 366.203 24.4537 366.427 24.6426C366.652 24.8314 366.963 24.9258 367.358 24.9258C367.745 24.9258 368.051 24.8314 368.275 24.6426C368.5 24.4537 368.613 24.2019 368.613 23.8872H369.408C369.408 24.4267 369.224 24.8539 368.855 25.1686C368.496 25.4744 367.997 25.6272 367.358 25.6272Z" fill="black"/>
<path d="M353.976 36.0001H352.803V26.5581H353.814V34.6377H353.855L359.547 26.5581H360.721V36.0001H359.709V27.9205H359.655L353.976 36.0001Z" fill="black"/>
<path d="M351.009 38.2931H349.998V36.0001H342.08V26.5581H343.092V35.0694H348.541V26.5581H349.553V35.0694H351.009V38.2931Z" fill="black"/>
<path d="M340.464 36.0001H339.385L338.494 33.8149H333.288L332.384 36.0001H331.332L335.244 26.5581H336.566L340.464 36.0001ZM335.878 27.5293L333.652 32.9382H338.13L335.918 27.5293H335.878Z" fill="black"/>
<path d="M328.621 30.9958C329.179 31.1667 329.61 31.4589 329.916 31.8726C330.231 32.2773 330.388 32.7628 330.388 33.3294C330.388 34.2016 330.096 34.8671 329.511 35.3257C328.936 35.7753 328.095 36.0001 326.989 36.0001H322.875V26.5581H326.949C327.911 26.5581 328.648 26.7649 329.161 27.1786C329.682 27.5832 329.943 28.1632 329.943 28.9186C329.943 29.3952 329.831 29.8088 329.606 30.1595C329.381 30.5013 329.053 30.7665 328.621 30.9554V30.9958ZM323.887 27.4888V30.6316H326.989C327.591 30.6316 328.059 30.4923 328.392 30.2135C328.725 29.9347 328.891 29.5436 328.891 29.04C328.891 28.5274 328.725 28.1408 328.392 27.88C328.068 27.6192 327.587 27.4888 326.949 27.4888H323.887ZM327.002 35.0694C327.767 35.0694 328.347 34.921 328.743 34.6243C329.138 34.3275 329.336 33.8869 329.336 33.3024C329.336 32.7269 329.147 32.2862 328.769 31.9805C328.392 31.6658 327.852 31.5084 327.151 31.5084H323.887V35.0694H327.002Z" fill="black"/>
<path d="M315.953 36.1351C315.018 36.1351 314.191 35.9283 313.472 35.5146C312.761 35.101 312.208 34.5255 311.812 33.7881C311.426 33.0507 311.232 32.2144 311.232 31.2792C311.232 30.344 311.426 29.5077 311.812 28.7703C312.208 28.033 312.761 27.4575 313.472 27.0438C314.191 26.6302 315.018 26.4233 315.953 26.4233C316.889 26.4233 317.711 26.6302 318.422 27.0438C319.141 27.4575 319.694 28.033 320.081 28.7703C320.477 29.5077 320.674 30.344 320.674 31.2792C320.674 32.2144 320.477 33.0507 320.081 33.7881C319.694 34.5255 319.141 35.101 318.422 35.5146C317.711 35.9283 316.889 36.1351 315.953 36.1351ZM315.953 35.2044C316.682 35.2044 317.325 35.038 317.882 34.7053C318.44 34.3636 318.867 33.896 319.164 33.3025C319.469 32.709 319.622 32.0346 319.622 31.2792C319.622 30.5239 319.469 29.8494 319.164 29.2559C318.867 28.6624 318.44 28.1993 317.882 27.8666C317.325 27.5249 316.682 27.3541 315.953 27.3541C315.225 27.3541 314.582 27.5249 314.025 27.8666C313.467 28.1993 313.035 28.6624 312.73 29.2559C312.433 29.8494 312.285 30.5239 312.285 31.2792C312.285 32.0346 312.433 32.709 312.73 33.3025C313.035 33.896 313.467 34.3636 314.025 34.7053C314.582 35.038 315.225 35.2044 315.953 35.2044Z" fill="black"/>
<path d="M308.018 30.6586V26.5581H309.03V36.0001H308.018V31.5893H302.191V36.0001H301.18V26.5581H302.191V30.6586H308.018Z" fill="black"/>
<path d="M297.493 30.6586V26.5581H298.505V36.0001H297.493V31.5893H291.666V36.0001H290.654V26.5581H291.666V30.6586H297.493Z" fill="black"/>
<path d="M281.238 36.0001H280.064V26.5581H281.076V34.6377H281.117L286.809 26.5581H287.982V36.0001H286.971V27.9205H286.917L281.238 36.0001Z" fill="black"/>
<path d="M267.459 36.0001H266.285V26.5581H267.297V34.6377H267.337L273.029 26.5581H274.203V36.0001H273.191V27.9205H273.137L267.459 36.0001Z" fill="black"/>
<path d="M253.681 36.0001H252.508V26.5581H253.519V34.6377H253.56L259.252 26.5581H260.426V36.0001H259.414V27.9205H259.36L253.681 36.0001Z" fill="black"/>
<path d="M245.972 31.1577L251.111 36.0001H249.762L244.771 31.3331V36.0001H243.76V26.5581H244.771V31.1037L249.506 26.5581H250.747L245.972 31.1577Z" fill="black"/>
<path d="M234.343 36.0001H233.17V26.5581H234.182V34.6377H234.222L239.914 26.5581H241.088V36.0001H240.076V27.9205H240.022L234.343 36.0001Z" fill="black"/>
<path d="M221.168 36.0001H220.156V26.5581H221.397L225.322 32.4526H225.363L229.288 26.5581H230.502V36.0001H229.49V27.9879H229.45L225.687 33.6126H224.972L221.208 27.9879H221.168V36.0001Z" fill="black"/>
<path d="M213.235 36.1351C212.299 36.1351 211.472 35.9283 210.753 35.5146C210.042 35.101 209.489 34.5255 209.094 33.7881C208.707 33.0507 208.514 32.2144 208.514 31.2792C208.514 30.344 208.707 29.5077 209.094 28.7703C209.489 28.033 210.042 27.4575 210.753 27.0438C211.472 26.6302 212.299 26.4233 213.235 26.4233C214.17 26.4233 214.993 26.6302 215.703 27.0438C216.422 27.4575 216.975 28.033 217.362 28.7703C217.758 29.5077 217.956 30.344 217.956 31.2792C217.956 32.2144 217.758 33.0507 217.362 33.7881C216.975 34.5255 216.422 35.101 215.703 35.5146C214.993 35.9283 214.17 36.1351 213.235 36.1351ZM213.235 35.2044C213.963 35.2044 214.606 35.038 215.164 34.7053C215.721 34.3636 216.148 33.896 216.445 33.3025C216.751 32.709 216.904 32.0346 216.904 31.2792C216.904 30.5239 216.751 29.8494 216.445 29.2559C216.148 28.6624 215.721 28.1993 215.164 27.8666C214.606 27.5249 213.963 27.3541 213.235 27.3541C212.506 27.3541 211.863 27.5249 211.306 27.8666C210.748 28.1993 210.317 28.6624 210.011 29.2559C209.714 29.8494 209.566 30.5239 209.566 31.2792C209.566 32.0346 209.714 32.709 210.011 33.3025C210.317 33.896 210.748 34.3636 211.306 34.7053C211.863 35.038 212.506 35.2044 213.235 35.2044Z" fill="black"/>
<path d="M205.3 30.6586V26.5581H206.311V36.0001H205.3V31.5893H199.473V36.0001H198.461V26.5581H199.473V30.6586H205.3Z" fill="black"/>
<path d="M191.539 36.1351C190.604 36.1351 189.777 35.9283 189.057 35.5146C188.347 35.101 187.794 34.5255 187.398 33.7881C187.012 33.0507 186.818 32.2144 186.818 31.2792C186.818 30.344 187.012 29.5077 187.398 28.7703C187.794 28.033 188.347 27.4575 189.057 27.0438C189.777 26.6302 190.604 26.4233 191.539 26.4233C192.475 26.4233 193.297 26.6302 194.008 27.0438C194.727 27.4575 195.28 28.033 195.667 28.7703C196.063 29.5077 196.26 30.344 196.26 31.2792C196.26 32.2144 196.063 33.0507 195.667 33.7881C195.28 34.5255 194.727 35.101 194.008 35.5146C193.297 35.9283 192.475 36.1351 191.539 36.1351ZM191.539 35.2044C192.268 35.2044 192.911 35.038 193.468 34.7053C194.026 34.3636 194.453 33.896 194.75 33.3025C195.055 32.709 195.208 32.0346 195.208 31.2792C195.208 30.5239 195.055 29.8494 194.75 29.2559C194.453 28.6624 194.026 28.1993 193.468 27.8666C192.911 27.5249 192.268 27.3541 191.539 27.3541C190.811 27.3541 190.168 27.5249 189.61 27.8666C189.053 28.1993 188.621 28.6624 188.316 29.2559C188.019 29.8494 187.87 30.5239 187.87 31.2792C187.87 32.0346 188.019 32.709 188.316 33.3025C188.621 33.896 189.053 34.3636 189.61 34.7053C190.168 35.038 190.811 35.2044 191.539 35.2044Z" fill="black"/>
<path d="M181.243 31.1577L186.383 36.0001H185.034L180.043 31.3331V36.0001H179.031V26.5581H180.043V31.1037L184.777 26.5581H186.018L181.243 31.1577Z" fill="black"/>
<path d="M172.179 26.4233C173.105 26.4233 173.919 26.6302 174.62 27.0438C175.331 27.4575 175.879 28.033 176.266 28.7703C176.652 29.5077 176.846 30.344 176.846 31.2792C176.846 32.2144 176.652 33.0507 176.266 33.7881C175.879 34.5255 175.331 35.101 174.62 35.5146C173.919 35.9283 173.105 36.1351 172.179 36.1351C171.369 36.1351 170.654 35.9912 170.034 35.7035C169.423 35.4067 168.928 35.0066 168.55 34.503C168.173 33.9904 167.921 33.4104 167.795 32.763H168.834C168.986 33.4913 169.351 34.0803 169.926 34.53C170.502 34.9796 171.252 35.2044 172.179 35.2044C172.862 35.2044 173.465 35.056 173.986 34.7593C174.508 34.4535 174.921 34.0354 175.227 33.5048C175.533 32.9743 175.713 32.3628 175.767 31.6704H171.288V30.7936H175.753C175.69 30.1192 175.506 29.5257 175.2 29.0131C174.894 28.4916 174.481 28.0869 173.959 27.7992C173.447 27.5024 172.853 27.3541 172.179 27.3541C171.261 27.3541 170.511 27.5879 169.926 28.0555C169.342 28.5141 168.986 29.0941 168.861 29.7955H167.822C167.921 29.166 168.155 28.595 168.523 28.0824C168.901 27.5699 169.4 27.1652 170.021 26.8685C170.65 26.5717 171.369 26.4233 172.179 26.4233Z" fill="black"/>
<path d="M323.902 16.9999H322.729V7.55794H323.74V15.6376H323.781L329.473 7.55794H330.646V16.9999H329.635V8.92028H329.581L323.902 16.9999ZM326.694 6.62723C326.056 6.62723 325.552 6.47436 325.183 6.16862C324.815 5.85389 324.63 5.42675 324.63 4.88721H325.426C325.426 5.20194 325.539 5.45373 325.763 5.64257C325.988 5.83141 326.298 5.92583 326.694 5.92583C327.081 5.92583 327.387 5.83141 327.611 5.64257C327.836 5.45373 327.949 5.20194 327.949 4.88721H328.744C328.744 5.42675 328.56 5.85389 328.191 6.16862C327.832 6.47436 327.333 6.62723 326.694 6.62723Z" fill="black"/>
<path d="M315.807 17.1351C314.872 17.1351 314.044 16.9283 313.325 16.5146C312.615 16.101 312.062 15.5255 311.666 14.7881C311.279 14.0507 311.086 13.2144 311.086 12.2792C311.086 11.344 311.279 10.5077 311.666 9.77035C312.062 9.03297 312.615 8.45746 313.325 8.04381C314.044 7.63016 314.872 7.42334 315.807 7.42334C316.742 7.42334 317.565 7.63016 318.275 8.04381C318.995 8.45746 319.548 9.03297 319.934 9.77035C320.33 10.5077 320.528 11.344 320.528 12.2792C320.528 13.2144 320.33 14.0507 319.934 14.7881C319.548 15.5255 318.995 16.101 318.275 16.5146C317.565 16.9283 316.742 17.1351 315.807 17.1351ZM315.807 16.2044C316.535 16.2044 317.178 16.038 317.736 15.7053C318.293 15.3636 318.72 14.896 319.017 14.3025C319.323 13.709 319.476 13.0346 319.476 12.2792C319.476 11.5239 319.323 10.8494 319.017 10.2559C318.72 9.66244 318.293 9.19933 317.736 8.86661C317.178 8.5249 316.535 8.35405 315.807 8.35405C315.079 8.35405 314.436 8.5249 313.878 8.86661C313.321 9.19933 312.889 9.66244 312.583 10.2559C312.286 10.8494 312.138 11.5239 312.138 12.2792C312.138 13.0346 312.286 13.709 312.583 14.3025C312.889 14.896 313.321 15.3636 313.878 15.7053C314.436 16.038 315.079 16.2044 315.807 16.2044Z" fill="black"/>
<path d="M307.65 11.9958C308.208 12.1667 308.64 12.4589 308.945 12.8726C309.26 13.2773 309.417 13.7628 309.417 14.3294C309.417 15.2016 309.125 15.8671 308.541 16.3257C307.965 16.7753 307.124 17.0001 306.018 17.0001H301.904V7.55811H305.978C306.94 7.55811 307.677 7.76493 308.19 8.17858C308.712 8.58324 308.972 9.16324 308.972 9.9186C308.972 10.3952 308.86 10.8088 308.635 11.1595C308.41 11.5013 308.082 11.7665 307.65 11.9554V11.9958ZM302.916 8.48882V11.6316H306.018C306.621 11.6316 307.088 11.4923 307.421 11.2135C307.754 10.9347 307.92 10.5436 307.92 10.04C307.92 9.52743 307.754 9.14076 307.421 8.87998C307.097 8.61921 306.616 8.48882 305.978 8.48882H302.916ZM306.032 16.0694C306.796 16.0694 307.376 15.921 307.772 15.6243C308.167 15.3275 308.365 14.8869 308.365 14.3024C308.365 13.7269 308.176 13.2862 307.799 12.9805C307.421 12.6658 306.882 12.5084 306.18 12.5084H302.916V16.0694H306.032Z" fill="black"/>
<path d="M294.983 17.1351C294.048 17.1351 293.22 16.9283 292.501 16.5146C291.79 16.101 291.237 15.5255 290.842 14.7881C290.455 14.0507 290.262 13.2144 290.262 12.2792C290.262 11.344 290.455 10.5077 290.842 9.77035C291.237 9.03297 291.79 8.45746 292.501 8.04381C293.22 7.63016 294.048 7.42334 294.983 7.42334C295.918 7.42334 296.741 7.63016 297.451 8.04381C298.171 8.45746 298.724 9.03297 299.11 9.77035C299.506 10.5077 299.704 11.344 299.704 12.2792C299.704 13.2144 299.506 14.0507 299.11 14.7881C298.724 15.5255 298.171 16.101 297.451 16.5146C296.741 16.9283 295.918 17.1351 294.983 17.1351ZM294.983 16.2044C295.711 16.2044 296.354 16.038 296.912 15.7053C297.469 15.3636 297.896 14.896 298.193 14.3025C298.499 13.709 298.652 13.0346 298.652 12.2792C298.652 11.5239 298.499 10.8494 298.193 10.2559C297.896 9.66244 297.469 9.19933 296.912 8.86661C296.354 8.5249 295.711 8.35405 294.983 8.35405C294.254 8.35405 293.611 8.5249 293.054 8.86661C292.496 9.19933 292.065 9.66244 291.759 10.2559C291.462 10.8494 291.314 11.5239 291.314 12.2792C291.314 13.0346 291.462 13.709 291.759 14.3025C292.065 14.896 292.496 15.3636 293.054 15.7053C293.611 16.038 294.254 16.2044 294.983 16.2044Z" fill="black"/>
<path d="M284.942 7.55811C286.12 7.55811 287.028 7.83687 287.667 8.3944C288.305 8.95192 288.625 9.74775 288.625 10.7819C288.625 11.816 288.305 12.6118 287.667 13.1693C287.037 13.7179 286.129 13.9921 284.942 13.9921H282.42V17.0001H281.408V7.55811H284.942ZM284.942 13.0749C285.796 13.0749 286.448 12.8771 286.898 12.4814C287.348 12.0858 287.572 11.5192 287.572 10.7819C287.572 10.0445 287.348 9.47798 286.898 9.08231C286.448 8.68665 285.796 8.48882 284.942 8.48882H282.42V13.0749H284.942Z" fill="black"/>
<path d="M279.343 12.2792C279.343 13.5651 278.893 14.5408 277.994 15.2062C277.095 15.8627 275.903 16.1954 274.419 16.2044V17.1351H273.408V16.2044C271.915 16.1954 270.719 15.8627 269.82 15.2062C268.93 14.5408 268.484 13.5651 268.484 12.2792C268.484 11.0023 268.93 10.0356 269.82 9.37918C270.71 8.71375 271.906 8.37203 273.408 8.35405V7.42334H274.419V8.35405C275.921 8.37203 277.117 8.71375 278.007 9.37918C278.898 10.0356 279.343 11.0023 279.343 12.2792ZM269.536 12.2792C269.536 13.2774 269.887 14.0282 270.589 14.5318C271.29 15.0264 272.23 15.2782 273.408 15.2872V9.27127C272.221 9.28026 271.277 9.53205 270.575 10.0266C269.883 10.5212 269.536 11.2721 269.536 12.2792ZM274.419 15.2872C275.597 15.2782 276.537 15.0264 277.238 14.5318C277.94 14.0282 278.291 13.2774 278.291 12.2792C278.291 11.2721 277.94 10.5212 277.238 10.0266C276.546 9.53205 275.606 9.28026 274.419 9.27127V15.2872Z" fill="black"/>
<path d="M259.674 17.0001H258.5V7.55811H259.512V15.6377H259.552L265.244 7.55811H266.418V17.0001H265.406V8.92045H265.352L259.674 17.0001Z" fill="black"/>
<path d="M256.707 19.2931H255.695V17.0001H247.777V7.55811H248.789V16.0694H254.238V7.55811H255.25V16.0694H256.707V19.2931Z" fill="black"/>
<path d="M239.72 17.0001H238.708V8.48882H235.188V7.55811H243.24V8.48882H239.72V17.0001Z" fill="black"/>
<path d="M233.854 7.55811H234.933L231.332 14.8284C230.918 15.6737 230.513 16.2717 230.118 16.6224C229.722 16.9641 229.218 17.135 228.607 17.135C228.328 17.135 228.081 17.09 227.865 17.0001V16.0694C228.072 16.1593 228.319 16.2043 228.607 16.2043C228.958 16.2043 229.259 16.1054 229.511 15.9075C229.762 15.7007 230.005 15.359 230.239 14.8824L230.441 14.4777L226.557 7.55811H227.663L230.927 13.4661H230.967L233.854 7.55811Z" fill="black"/>
<path d="M222.595 17.0001H221.583V8.48882H218.062V7.55811H226.115V8.48882H222.595V17.0001Z" fill="black"/>
<path d="M209.685 17.0001H208.512V7.55811H209.523V15.6377H209.564L215.256 7.55811H216.43V17.0001H215.418V8.92045H215.364L209.685 17.0001Z" fill="black"/>
<path d="M203.376 17.0001H202.364V8.48882H198.844V7.55811H206.896V8.48882H203.376V17.0001Z" fill="black"/>
<path d="M193.673 17.1351C192.737 17.1351 191.915 16.9283 191.204 16.5146C190.494 16.101 189.945 15.5255 189.559 14.7881C189.172 14.0507 188.979 13.2144 188.979 12.2792C188.979 11.344 189.172 10.5077 189.559 9.77035C189.945 9.03297 190.494 8.45746 191.204 8.04381C191.915 7.63016 192.737 7.42334 193.673 7.42334C194.464 7.42334 195.17 7.57171 195.79 7.86846C196.411 8.16521 196.91 8.56987 197.287 9.08243C197.665 9.595 197.903 10.166 198.002 10.7955H196.964C196.874 10.3459 196.685 9.93671 196.397 9.56802C196.109 9.19034 195.732 8.89359 195.264 8.67778C194.797 8.46196 194.266 8.35405 193.673 8.35405C192.944 8.35405 192.306 8.5249 191.757 8.86661C191.209 9.19933 190.781 9.66244 190.476 10.2559C190.179 10.8494 190.031 11.5239 190.031 12.2792C190.031 13.0346 190.179 13.709 190.476 14.3025C190.781 14.896 191.209 15.3636 191.757 15.7053C192.306 16.038 192.944 16.2044 193.673 16.2044C194.572 16.2044 195.309 15.9796 195.885 15.53C196.46 15.0803 196.829 14.4913 196.991 13.763H198.029C197.903 14.4014 197.647 14.9769 197.26 15.4895C196.883 16.0021 196.384 16.4067 195.763 16.7035C195.152 16.9912 194.455 17.1351 193.673 17.1351Z" fill="black"/>
<path d="M185.764 11.6586V7.55811H186.776V17.0001H185.764V12.5893H179.937V17.0001H178.926V7.55811H179.937V11.6586H185.764Z" fill="black"/>
<path d="M169.509 17.0001H168.336V7.55811H169.348V15.6377H169.388L175.08 7.55811H176.254V17.0001H175.242V8.92045H175.188L169.509 17.0001Z" fill="black"/>
<defs>
<radialGradient id="paint0_radial_186_2740" cx="0" cy="0" r="1" gradientUnits="userSpaceOnUse" gradientTransform="translate(29.5919 14.897) scale(37.4541 37.4541)">
<stop stop-color="#EBFF00"/>
<stop offset="1" stop-color="#008900"/>
</radialGradient>
<radialGradient id="paint1_radial_186_2740" cx="0" cy="0" r="1" gradientUnits="userSpaceOnUse" gradientTransform="translate(3.46712 23.3966) scale(0.468005 0.46803)">
<stop stop-color="#EBFF00"/>
<stop offset="1" stop-color="#008900"/>
</radialGradient>
<radialGradient id="paint2_radial_186_2740" cx="0" cy="0" r="1" gradientUnits="userSpaceOnUse" gradientTransform="translate(-1.94214 23.9817) scale(47.9395 47.9395)">
<stop stop-color="#EBFF00"/>
<stop offset="1" stop-color="#008900"/>
</radialGradient>
<radialGradient id="paint3_radial_186_2740" cx="0" cy="0" r="1" gradientUnits="userSpaceOnUse" gradientTransform="translate(-5.38578 35.1475) scale(23.3283 23.3283)">
<stop stop-color="#EBFF00"/>
<stop offset="1" stop-color="#008900"/>
</radialGradient>
<radialGradient id="paint4_radial_186_2740" cx="0" cy="0" r="1" gradientUnits="userSpaceOnUse" gradientTransform="translate(12.0916 -3.14961) scale(35.7941 35.7941)">
<stop stop-color="#EBFF00"/>
<stop offset="1" stop-color="#008900"/>
</radialGradient>
<radialGradient id="paint5_radial_186_2740" cx="0" cy="0" r="1" gradientUnits="userSpaceOnUse" gradientTransform="translate(19.6069 -4.40258) scale(42.9328 42.9328)">
<stop stop-color="#EBFF00"/>
<stop offset="1" stop-color="#008900"/>
</radialGradient>
<radialGradient id="paint6_radial_186_2740" cx="0" cy="0" r="1" gradientUnits="userSpaceOnUse" gradientTransform="translate(36.4199 19.286) scale(34.8446 34.8446)">
<stop stop-color="#EBFF00"/>
<stop offset="1" stop-color="#008900"/>
</radialGradient>
</defs>
</svg>
