<svg width="138" height="45" viewBox="0 0 138 45" fill="none" xmlns="http://www.w3.org/2000/svg">
<path d="M124.914 30.8988C124.575 30.8988 124.259 30.8746 123.968 30.8261C123.693 30.7937 123.427 30.7371 123.168 30.6563V27.7454C123.669 27.9071 124.179 27.988 124.696 27.988C125.1 27.988 125.464 27.9314 125.788 27.8182C126.111 27.6888 126.402 27.4948 126.661 27.236C126.936 26.9611 127.178 26.6134 127.389 26.193L128.092 24.7618L128.044 26.7994L120.524 13.6279H124.332L129.159 22.4817H129.281L133.404 13.6279H137.019L130.979 26.1445C130.413 27.3088 129.847 28.2387 129.281 28.934C128.715 29.6132 128.084 30.1145 127.389 30.4379C126.693 30.7452 125.869 30.8988 124.914 30.8988Z" fill="black"/>
<path d="M103.308 30.6077L110.197 13.6279H114.612L121.501 30.6077H117.765L112.429 17.0239H112.307L106.947 30.6077H103.308ZM106.51 27.4543L107.626 24.5435H117.086L118.202 27.4543H106.51Z" fill="black"/>
<path d="M91.9121 30.6077V13.6279H104.768V16.66H95.4294V30.6077H91.9121Z" fill="black"/>
<path d="M74.3354 30.6077V13.6279H87.3129V16.5388H77.8527V27.6969H81.9036C82.9709 27.6969 83.7714 27.4948 84.305 27.0905C84.8548 26.6862 85.1298 26.0798 85.1298 25.2712C85.1298 24.4627 84.8629 23.8562 84.3293 23.452C83.7956 23.0477 82.9871 22.8455 81.9036 22.8455H76.1547V19.9347H82.1219C83.6097 19.9347 84.8548 20.1369 85.8575 20.5411C86.8601 20.9454 87.612 21.5438 88.1134 22.3361C88.6308 23.1285 88.8896 24.1069 88.8896 25.2712C88.8896 27.0177 88.3155 28.3438 87.1673 29.2494C86.0192 30.1549 84.3374 30.6077 82.1219 30.6077H74.3354Z" fill="black"/>
<path d="M60.5292 30.8988C60.1896 30.8988 59.8742 30.8746 59.5831 30.8261C59.3082 30.7937 59.0414 30.7371 58.7827 30.6563V27.7454C59.284 27.9071 59.7934 27.988 60.3109 27.988C60.7151 27.988 61.079 27.9314 61.4024 27.8182C61.7258 27.6888 62.0169 27.4948 62.2757 27.236C62.5506 26.9611 62.7931 26.6134 63.0034 26.193L63.7068 24.7618L63.6583 26.7994L56.1387 13.6279H59.947L64.7741 22.4817H64.8954L69.0191 13.6279H72.6333L66.5934 26.1445C66.0274 27.3088 65.4614 28.2387 64.8954 28.934C64.3294 29.6132 63.6987 30.1145 63.0034 30.4379C62.308 30.7452 61.4833 30.8988 60.5292 30.8988Z" fill="black"/>
<path d="M50.619 30.6077L42.9781 22.0208L50.3522 13.6279H54.4759L46.3498 22.797L46.5196 21.0748L55.0338 30.6077H50.619ZM39.752 30.6077V13.6279H43.2692V30.6077H39.752Z" fill="black"/>
<path d="M11.4594 32.271L11.414 32.2255C9.21567 28.7841 9.4753 25.155 12.1663 21.7117C13.292 20.2752 18.3897 14.9444 21.816 11.3911C22.502 12.8939 22.845 14.5142 22.845 16.1364C22.845 18.871 21.869 21.6074 19.9171 23.7792L19.4396 24.2681L11.4594 32.2729V32.271Z" fill="url(#paint0_radial_30_926)"/>
<path d="M3.50263 23.8248C3.46663 23.6865 3.43631 23.5444 3.41357 23.4004C3.43821 23.5463 3.46852 23.6865 3.50263 23.8248Z" fill="url(#paint1_radial_30_926)"/>
<path d="M22.8449 33.5215V40.302C19.5474 40.302 13.9532 41.6892 11.5863 44.8805C11.5313 44.818 11.4782 44.7555 11.4214 44.6948V36.8947C11.4441 36.9099 11.465 36.9269 11.4877 36.9421C14.7832 34.5846 18.7761 33.5878 22.843 33.5215H22.8449Z" fill="url(#paint2_radial_30_926)"/>
<path d="M11.4216 36.8947V44.6948C8.35725 41.278 4.29801 40.302 0 40.302V33.5215C4.0365 33.5878 8.15258 34.5713 11.4216 36.8947Z" fill="url(#paint3_radial_30_926)"/>
<path d="M15.2966 3.87162C13.159 6.01874 8.10106 11.0975 5.80613 13.3659C3.47141 15.6741 1.87197 19.271 1.87386 22.3675C-1.0218 17.9425 -0.529082 11.9503 3.35391 8.05973L11.4364 0L15.2966 3.87162Z" fill="url(#paint4_radial_30_926)"/>
<path d="M11.0033 20.7999C8.82022 23.5895 8.04135 26.5761 8.67809 29.4945L3.78123 24.6128C3.78123 24.6128 3.77744 24.609 3.77744 24.6052C3.76039 24.5673 3.74333 24.5256 3.72438 24.4858C3.70543 24.4442 3.68837 24.4025 3.67132 24.3589C3.65995 24.3342 3.65237 24.3077 3.641 24.2812C3.61826 24.2205 3.59552 24.158 3.57846 24.0936C3.55003 24.0045 3.5235 23.9135 3.50076 23.8226C3.46665 23.6842 3.43633 23.5421 3.41169 23.3981C3.40222 23.3507 3.39464 23.3033 3.38895 23.2522C3.37758 23.1877 3.3719 23.1214 3.36432 23.0551C3.35674 22.9963 3.35295 22.9357 3.34916 22.8769C3.34916 22.8542 3.34537 22.8296 3.34347 22.8068C3.33968 22.7575 3.33589 22.7064 3.33399 22.6552C3.33399 22.6135 3.3302 22.5699 3.32831 22.5263C3.26198 19.8297 4.74582 16.4906 6.84366 14.4173C7.02748 14.2354 7.22836 14.0364 7.44629 13.8223L7.61116 13.6574C7.77983 13.4907 7.95417 13.3163 8.1361 13.1363L8.31992 12.9525C8.50753 12.7667 8.69893 12.5753 8.89791 12.3764C8.96424 12.31 9.03057 12.2456 9.0969 12.1774C9.16701 12.1073 9.23903 12.0352 9.31293 11.9632C9.37547 11.8988 9.4399 11.8363 9.50623 11.7699C10.3022 10.974 11.1549 10.1212 11.9926 9.2817C12.0494 9.22485 12.1044 9.16801 12.1631 9.11116C12.2749 8.99745 12.3867 8.88374 12.5004 8.77193L12.6691 8.60328C12.726 8.54643 12.779 8.49147 12.8359 8.43461C12.8927 8.37776 12.9458 8.3228 13.0026 8.26785C13.0595 8.211 13.1125 8.15604 13.1675 8.10108C13.2357 8.03286 13.3039 7.96463 13.3722 7.89641C13.4669 7.80166 13.5617 7.7069 13.6545 7.61215C13.7076 7.55909 13.7607 7.50793 13.8137 7.45297C14.026 7.24072 14.2306 7.03416 14.4296 6.83518C14.4789 6.78401 14.5301 6.73474 14.5793 6.68547C15.2672 5.99377 15.8737 5.38355 16.3436 4.91357L19.4894 8.06697C19.8287 8.40808 20.1641 8.75298 20.4578 9.132C20.6815 9.42005 20.8899 9.71568 21.0813 10.0208C17.6418 13.5816 12.22 19.246 11.0071 20.7961L11.0033 20.7999Z" fill="url(#paint5_radial_30_926)"/>
<path d="M22.845 16.1345C22.845 18.8691 21.869 21.6055 19.9171 23.7773L19.4396 24.2662L11.4594 32.271L11.414 32.2255C9.21567 28.784 9.4753 25.155 12.1663 21.7117C13.292 20.2752 18.3897 14.9444 21.816 11.3911C22.502 12.8939 22.845 14.5142 22.845 16.1364V16.1345Z" fill="url(#paint6_radial_30_926)"/>
<defs>
<radialGradient id="paint0_radial_30_926" cx="0" cy="0" r="1" gradientUnits="userSpaceOnUse" gradientTransform="translate(29.5914 14.897) scale(37.4541 37.4541)">
<stop stop-color="#EBFF00"/>
<stop offset="1" stop-color="#008900"/>
</radialGradient>
<radialGradient id="paint1_radial_30_926" cx="0" cy="0" r="1" gradientUnits="userSpaceOnUse" gradientTransform="translate(3.46663 23.3966) scale(0.468005 0.46803)">
<stop stop-color="#EBFF00"/>
<stop offset="1" stop-color="#008900"/>
</radialGradient>
<radialGradient id="paint2_radial_30_926" cx="0" cy="0" r="1" gradientUnits="userSpaceOnUse" gradientTransform="translate(-1.94263 23.9817) scale(47.9395 47.9395)">
<stop stop-color="#EBFF00"/>
<stop offset="1" stop-color="#008900"/>
</radialGradient>
<radialGradient id="paint3_radial_30_926" cx="0" cy="0" r="1" gradientUnits="userSpaceOnUse" gradientTransform="translate(-5.38578 35.1475) scale(23.3283 23.3283)">
<stop stop-color="#EBFF00"/>
<stop offset="1" stop-color="#008900"/>
</radialGradient>
<radialGradient id="paint4_radial_30_926" cx="0" cy="0" r="1" gradientUnits="userSpaceOnUse" gradientTransform="translate(12.0921 -3.14961) scale(35.7941 35.7941)">
<stop stop-color="#EBFF00"/>
<stop offset="1" stop-color="#008900"/>
</radialGradient>
<radialGradient id="paint5_radial_30_926" cx="0" cy="0" r="1" gradientUnits="userSpaceOnUse" gradientTransform="translate(19.6069 -4.40258) scale(42.9328 42.9328)">
<stop stop-color="#EBFF00"/>
<stop offset="1" stop-color="#008900"/>
</radialGradient>
<radialGradient id="paint6_radial_30_926" cx="0" cy="0" r="1" gradientUnits="userSpaceOnUse" gradientTransform="translate(36.4194 19.286) scale(34.8446 34.8446)">
<stop stop-color="#EBFF00"/>
<stop offset="1" stop-color="#008900"/>
</radialGradient>
</defs>
</svg>
